<?xml version='1.0' encoding='ASCII' standalone='yes'?>
<svg xmlns="http://www.w3.org/2000/svg" xmlns:rdkit="http://www.rdkit.org/xml" xmlns:xlink="http://www.w3.org/1999/xlink" version="1.1" baseProfile="full" xml:space="preserve" width="867px" height="116px" viewBox="0 0 867 116">
<!-- END OF HEADER -->
<g><g transform="translate(0, 0) scale(1 1) "><!-- END OF HEADER -->
<path class="bond-0 atom-0 atom-1" d="M 47.8,102.5 L 65.1,85.8" style="fill:none;fill-rule:evenodd;stroke:#000000;stroke-width:2.0px;stroke-linecap:butt;stroke-linejoin:miter;stroke-opacity:1"/>
<path class="bond-1 atom-1 atom-2" d="M 65.1,85.8 L 81.2,90.5" style="fill:none;fill-rule:evenodd;stroke:#000000;stroke-width:2.0px;stroke-linecap:butt;stroke-linejoin:miter;stroke-opacity:1"/>
<path class="bond-2 atom-2 atom-3" d="M 95.1,85.8 L 105.5,75.9" style="fill:none;fill-rule:evenodd;stroke:#000000;stroke-width:2.0px;stroke-linecap:butt;stroke-linejoin:miter;stroke-opacity:1"/>
<path class="bond-3 atom-3 atom-4" d="M 105.5,75.9 L 128.5,82.5" style="fill:none;fill-rule:evenodd;stroke:#000000;stroke-width:2.0px;stroke-linecap:butt;stroke-linejoin:miter;stroke-opacity:1"/>
<path class="bond-3 atom-3 atom-4" d="M 108.5,73.0 L 127.5,78.5" style="fill:none;fill-rule:evenodd;stroke:#000000;stroke-width:2.0px;stroke-linecap:butt;stroke-linejoin:miter;stroke-opacity:1"/>
<path class="bond-4 atom-4 atom-5" d="M 128.5,82.5 L 145.8,65.9" style="fill:none;fill-rule:evenodd;stroke:#000000;stroke-width:2.0px;stroke-linecap:butt;stroke-linejoin:miter;stroke-opacity:1"/>
<path class="bond-5 atom-5 atom-6" d="M 144.3,67.4 L 160.6,72.1" style="fill:none;fill-rule:evenodd;stroke:#000000;stroke-width:2.0px;stroke-linecap:butt;stroke-linejoin:miter;stroke-opacity:1"/>
<path class="bond-5 atom-5 atom-6" d="M 145.3,63.9 L 161.6,68.6" style="fill:none;fill-rule:evenodd;stroke:#000000;stroke-width:2.0px;stroke-linecap:butt;stroke-linejoin:miter;stroke-opacity:1"/>
<path class="bond-6 atom-5 atom-7" d="M 145.8,65.9 L 142.1,50.8" style="fill:none;fill-rule:evenodd;stroke:#000000;stroke-width:2.0px;stroke-linecap:butt;stroke-linejoin:miter;stroke-opacity:1"/>
<path class="bond-7 atom-7 atom-8" d="M 147.0,35.9 L 153.6,29.7" style="fill:none;fill-rule:evenodd;stroke:#000000;stroke-width:2.0px;stroke-linecap:butt;stroke-linejoin:miter;stroke-opacity:1"/>
<path class="bond-8 atom-7 atom-9" d="M 133.1,40.6 L 117.0,35.9" style="fill:none;fill-rule:evenodd;stroke:#000000;stroke-width:2.0px;stroke-linecap:butt;stroke-linejoin:miter;stroke-opacity:1"/>
<path class="bond-9 atom-9 atom-10" d="M 119.0,36.5 L 115.1,20.6" style="fill:none;fill-rule:evenodd;stroke:#000000;stroke-width:2.0px;stroke-linecap:butt;stroke-linejoin:miter;stroke-opacity:1"/>
<path class="bond-9 atom-9 atom-10" d="M 115.5,37.4 L 111.6,21.4" style="fill:none;fill-rule:evenodd;stroke:#000000;stroke-width:2.0px;stroke-linecap:butt;stroke-linejoin:miter;stroke-opacity:1"/>
<path class="bond-10 atom-9 atom-11" d="M 117.0,35.9 L 106.7,45.9" style="fill:none;fill-rule:evenodd;stroke:#000000;stroke-width:2.0px;stroke-linecap:butt;stroke-linejoin:miter;stroke-opacity:1"/>
<path class="bond-11 atom-1 atom-12" d="M 65.1,85.8 L 59.4,62.5" style="fill:none;fill-rule:evenodd;stroke:#000000;stroke-width:2.0px;stroke-linecap:butt;stroke-linejoin:miter;stroke-opacity:1"/>
<path class="bond-12 atom-12 atom-13" d="M 59.4,62.5 L 76.7,45.9" style="fill:none;fill-rule:evenodd;stroke:#000000;stroke-width:2.0px;stroke-linecap:butt;stroke-linejoin:miter;stroke-opacity:1"/>
<path class="bond-12 atom-12 atom-13" d="M 58.4,58.5 L 72.7,44.7" style="fill:none;fill-rule:evenodd;stroke:#000000;stroke-width:2.0px;stroke-linecap:butt;stroke-linejoin:miter;stroke-opacity:1"/>
<path class="bond-13 atom-13 atom-14" d="M 76.7,45.9 L 70.9,22.6" style="fill:none;fill-rule:evenodd;stroke:#000000;stroke-width:2.0px;stroke-linecap:butt;stroke-linejoin:miter;stroke-opacity:1"/>
<path class="bond-14 atom-14 atom-15" d="M 70.9,22.6 L 47.9,15.9" style="fill:none;fill-rule:evenodd;stroke:#000000;stroke-width:2.0px;stroke-linecap:butt;stroke-linejoin:miter;stroke-opacity:1"/>
<path class="bond-14 atom-14 atom-15" d="M 67.9,25.5 L 48.9,20.0" style="fill:none;fill-rule:evenodd;stroke:#000000;stroke-width:2.0px;stroke-linecap:butt;stroke-linejoin:miter;stroke-opacity:1"/>
<path class="bond-15 atom-15 atom-16" d="M 47.9,15.9 L 30.6,32.6" style="fill:none;fill-rule:evenodd;stroke:#000000;stroke-width:2.0px;stroke-linecap:butt;stroke-linejoin:miter;stroke-opacity:1"/>
<path class="bond-16 atom-16 atom-17" d="M 30.6,32.6 L 36.3,55.9" style="fill:none;fill-rule:evenodd;stroke:#000000;stroke-width:2.0px;stroke-linecap:butt;stroke-linejoin:miter;stroke-opacity:1"/>
<path class="bond-16 atom-16 atom-17" d="M 34.6,33.7 L 39.3,53.0" style="fill:none;fill-rule:evenodd;stroke:#000000;stroke-width:2.0px;stroke-linecap:butt;stroke-linejoin:miter;stroke-opacity:1"/>
<path class="bond-17 atom-11 atom-3" d="M 101.7,60.7 L 105.5,75.9" style="fill:none;fill-rule:evenodd;stroke:#000000;stroke-width:2.0px;stroke-linecap:butt;stroke-linejoin:miter;stroke-opacity:1"/>
<path class="bond-18 atom-17 atom-12" d="M 36.3,55.9 L 59.4,62.5" style="fill:none;fill-rule:evenodd;stroke:#000000;stroke-width:2.0px;stroke-linecap:butt;stroke-linejoin:miter;stroke-opacity:1"/>
<path d="M 127.4,82.2 L 128.5,82.5 L 129.4,81.7" style="fill:none;stroke:#000000;stroke-width:2.0px;stroke-linecap:butt;stroke-linejoin:miter;stroke-opacity:1;"/>
<path d="M 145.0,66.7 L 145.8,65.9 L 145.6,65.2" style="fill:none;stroke:#000000;stroke-width:2.0px;stroke-linecap:butt;stroke-linejoin:miter;stroke-opacity:1;"/>
<path d="M 117.8,36.2 L 117.0,35.9 L 116.5,36.4" style="fill:none;stroke:#000000;stroke-width:2.0px;stroke-linecap:butt;stroke-linejoin:miter;stroke-opacity:1;"/>
<path d="M 75.8,46.7 L 76.7,45.9 L 76.4,44.7" style="fill:none;stroke:#000000;stroke-width:2.0px;stroke-linecap:butt;stroke-linejoin:miter;stroke-opacity:1;"/>
<path d="M 71.2,23.8 L 70.9,22.6 L 69.8,22.3" style="fill:none;stroke:#000000;stroke-width:2.0px;stroke-linecap:butt;stroke-linejoin:miter;stroke-opacity:1;"/>
<path d="M 49.0,16.3 L 47.9,15.9 L 47.0,16.8" style="fill:none;stroke:#000000;stroke-width:2.0px;stroke-linecap:butt;stroke-linejoin:miter;stroke-opacity:1;"/>
<path d="M 31.4,31.7 L 30.6,32.6 L 30.8,33.7" style="fill:none;stroke:#000000;stroke-width:2.0px;stroke-linecap:butt;stroke-linejoin:miter;stroke-opacity:1;"/>
<path d="M 36.0,54.7 L 36.3,55.9 L 37.5,56.2" style="fill:none;stroke:#000000;stroke-width:2.0px;stroke-linecap:butt;stroke-linejoin:miter;stroke-opacity:1;"/>
<path class="atom-2" d="M 86.0 87.6 L 89.2 92.8 Q 89.5 93.3, 90.1 94.3 Q 90.6 95.2, 90.6 95.3 L 90.6 87.6 L 91.9 87.6 L 91.9 97.5 L 90.6 97.5 L 87.1 91.7 Q 86.7 91.1, 86.2 90.3 Q 85.8 89.5, 85.7 89.3 L 85.7 97.5 L 84.4 97.5 L 84.4 87.6 L 86.0 87.6 " fill="#000000"/>
<path class="atom-2" d="M 84.3 98.5 L 85.6 98.5 L 85.6 102.7 L 90.7 102.7 L 90.7 98.5 L 92.0 98.5 L 92.0 108.4 L 90.7 108.4 L 90.7 103.8 L 85.6 103.8 L 85.6 108.4 L 84.3 108.4 L 84.3 98.5 " fill="#000000"/>
<path class="atom-6" d="M 164.3 72.6 Q 164.3 70.2, 165.5 68.9 Q 166.7 67.6, 168.9 67.6 Q 171.1 67.6, 172.3 68.9 Q 173.4 70.2, 173.4 72.6 Q 173.4 75.0, 172.2 76.4 Q 171.1 77.8, 168.9 77.8 Q 166.7 77.8, 165.5 76.4 Q 164.3 75.0, 164.3 72.6 M 168.9 76.6 Q 170.4 76.6, 171.2 75.6 Q 172.0 74.6, 172.0 72.6 Q 172.0 70.7, 171.2 69.7 Q 170.4 68.7, 168.9 68.7 Q 167.4 68.7, 166.5 69.7 Q 165.7 70.7, 165.7 72.6 Q 165.7 74.6, 166.5 75.6 Q 167.4 76.6, 168.9 76.6 " fill="#000000"/>
<path class="atom-7" d="M 137.9 37.7 L 141.1 42.9 Q 141.5 43.4, 142.0 44.4 Q 142.5 45.3, 142.5 45.4 L 142.5 37.7 L 143.8 37.7 L 143.8 47.6 L 142.5 47.6 L 139.0 41.8 Q 138.6 41.2, 138.2 40.4 Q 137.7 39.6, 137.6 39.4 L 137.6 47.6 L 136.3 47.6 L 136.3 37.7 L 137.9 37.7 " fill="#000000"/>
<path class="atom-8" d="M 156.7 21.0 L 158.0 21.0 L 158.0 22.2 L 156.7 22.2 L 156.7 21.0 M 156.7 23.7 L 158.0 23.7 L 158.0 30.9 L 156.7 30.9 L 156.7 23.7 " fill="#000000"/>
<path class="atom-8" d="M 162.6 21.0 Q 164.2 21.0, 165.1 21.8 Q 166.0 22.6, 166.0 23.9 Q 166.0 25.3, 165.1 26.1 Q 164.2 26.9, 162.6 26.9 L 161.0 26.9 L 161.0 30.9 L 159.6 30.9 L 159.6 21.0 L 162.6 21.0 M 162.6 25.7 Q 163.5 25.7, 164.0 25.3 Q 164.6 24.8, 164.6 23.9 Q 164.6 23.1, 164.0 22.6 Q 163.5 22.2, 162.6 22.2 L 161.0 22.2 L 161.0 25.7 L 162.6 25.7 " fill="#000000"/>
<path class="atom-8" d="M 168.1 23.7 L 168.2 24.7 Q 169.0 23.6, 170.2 23.6 Q 170.6 23.6, 171.1 23.8 L 170.9 24.9 Q 170.3 24.8, 170.0 24.8 Q 169.4 24.8, 169.0 25.0 Q 168.6 25.3, 168.3 25.8 L 168.3 30.9 L 167.0 30.9 L 167.0 23.7 L 168.1 23.7 " fill="#000000"/>
<path class="atom-10" d="M 106.7 12.7 Q 106.7 10.3, 107.9 9.0 Q 109.1 7.6, 111.3 7.6 Q 113.5 7.6, 114.7 9.0 Q 115.8 10.3, 115.8 12.7 Q 115.8 15.1, 114.6 16.5 Q 113.4 17.8, 111.3 17.8 Q 109.1 17.8, 107.9 16.5 Q 106.7 15.1, 106.7 12.7 M 111.3 16.7 Q 112.8 16.7, 113.6 15.7 Q 114.4 14.7, 114.4 12.7 Q 114.4 10.7, 113.6 9.7 Q 112.8 8.8, 111.3 8.8 Q 109.8 8.8, 108.9 9.7 Q 108.1 10.7, 108.1 12.7 Q 108.1 14.7, 108.9 15.7 Q 109.8 16.7, 111.3 16.7 " fill="#000000"/>
<path class="atom-11" d="M 86.3 47.6 L 87.6 47.6 L 87.6 51.8 L 92.7 51.8 L 92.7 47.6 L 94.0 47.6 L 94.0 57.5 L 92.7 57.5 L 92.7 53.0 L 87.6 53.0 L 87.6 57.5 L 86.3 57.5 L 86.3 47.6 " fill="#000000"/>
<path class="atom-11" d="M 97.5 47.6 L 100.8 52.9 Q 101.1 53.4, 101.6 54.3 Q 102.1 55.3, 102.2 55.3 L 102.2 47.6 L 103.5 47.6 L 103.5 57.5 L 102.1 57.5 L 98.6 51.8 Q 98.2 51.1, 97.8 50.4 Q 97.4 49.6, 97.3 49.3 L 97.3 57.5 L 96.0 57.5 L 96.0 47.6 L 97.5 47.6 " fill="#000000"/>
</g><g transform="translate(204, 8) scale(1 1) "><!-- END OF HEADER -->
<path class="bond-0 atom-0 atom-1" d="M 52.9,52.1 L 69.3,48.4" style="fill:none;fill-rule:evenodd;stroke:#000000;stroke-width:2.0px;stroke-linecap:butt;stroke-linejoin:miter;stroke-opacity:1"/>
<path class="bond-1 atom-1 atom-2" d="M 69.3,48.4 L 76.5,25.5" style="fill:none;fill-rule:evenodd;stroke:#000000;stroke-width:2.0px;stroke-linecap:butt;stroke-linejoin:miter;stroke-opacity:1"/>
<path class="bond-1 atom-1 atom-2" d="M 73.4,47.5 L 79.3,28.6" style="fill:none;fill-rule:evenodd;stroke:#000000;stroke-width:2.0px;stroke-linecap:butt;stroke-linejoin:miter;stroke-opacity:1"/>
<path class="bond-2 atom-2 atom-3" d="M 76.5,25.5 L 99.9,20.2" style="fill:none;fill-rule:evenodd;stroke:#000000;stroke-width:2.0px;stroke-linecap:butt;stroke-linejoin:miter;stroke-opacity:1"/>
<path class="bond-3 atom-3 atom-4" d="M 99.9,20.2 L 116.2,37.9" style="fill:none;fill-rule:evenodd;stroke:#000000;stroke-width:2.0px;stroke-linecap:butt;stroke-linejoin:miter;stroke-opacity:1"/>
<path class="bond-3 atom-3 atom-4" d="M 98.7,24.2 L 112.1,38.8" style="fill:none;fill-rule:evenodd;stroke:#000000;stroke-width:2.0px;stroke-linecap:butt;stroke-linejoin:miter;stroke-opacity:1"/>
<path class="bond-4 atom-4 atom-5" d="M 116.2,37.9 L 139.6,32.6" style="fill:none;fill-rule:evenodd;stroke:#000000;stroke-width:2.0px;stroke-linecap:butt;stroke-linejoin:miter;stroke-opacity:1"/>
<path class="bond-5 atom-5 atom-6" d="M 139.6,32.6 L 148.9,42.8" style="fill:none;fill-rule:evenodd;stroke:#000000;stroke-width:2.0px;stroke-linecap:butt;stroke-linejoin:miter;stroke-opacity:1"/>
<path class="bond-6 atom-6 atom-7" d="M 162.8,48.7 L 179.3,45.0" style="fill:none;fill-rule:evenodd;stroke:#000000;stroke-width:2.0px;stroke-linecap:butt;stroke-linejoin:miter;stroke-opacity:1"/>
<path class="bond-7 atom-7 atom-8" d="M 179.3,45.0 L 195.5,62.7" style="fill:none;fill-rule:evenodd;stroke:#000000;stroke-width:2.0px;stroke-linecap:butt;stroke-linejoin:miter;stroke-opacity:1"/>
<path class="bond-7 atom-7 atom-8" d="M 183.3,44.1 L 196.8,58.7" style="fill:none;fill-rule:evenodd;stroke:#000000;stroke-width:2.0px;stroke-linecap:butt;stroke-linejoin:miter;stroke-opacity:1"/>
<path class="bond-8 atom-8 atom-9" d="M 195.5,62.7 L 218.9,57.4" style="fill:none;fill-rule:evenodd;stroke:#000000;stroke-width:2.0px;stroke-linecap:butt;stroke-linejoin:miter;stroke-opacity:1"/>
<path class="bond-9 atom-9 atom-10" d="M 218.9,57.4 L 226.1,34.5" style="fill:none;fill-rule:evenodd;stroke:#000000;stroke-width:2.0px;stroke-linecap:butt;stroke-linejoin:miter;stroke-opacity:1"/>
<path class="bond-9 atom-9 atom-10" d="M 216.1,54.4 L 222.0,35.4" style="fill:none;fill-rule:evenodd;stroke:#000000;stroke-width:2.0px;stroke-linecap:butt;stroke-linejoin:miter;stroke-opacity:1"/>
<path class="bond-10 atom-10 atom-11" d="M 226.1,34.5 L 249.5,29.3" style="fill:none;fill-rule:evenodd;stroke:#000000;stroke-width:2.0px;stroke-linecap:butt;stroke-linejoin:miter;stroke-opacity:1"/>
<path class="bond-11 atom-11 atom-12" d="M 249.5,29.3 L 265.8,46.9" style="fill:none;fill-rule:evenodd;stroke:#000000;stroke-width:2.0px;stroke-linecap:butt;stroke-linejoin:miter;stroke-opacity:1"/>
<path class="bond-12 atom-12 atom-13" d="M 265.8,46.9 L 261.1,70.5" style="fill:none;fill-rule:evenodd;stroke:#000000;stroke-width:2.0px;stroke-linecap:butt;stroke-linejoin:miter;stroke-opacity:1"/>
<path class="bond-12 atom-12 atom-13" d="M 268.8,50.2 L 265.1,68.6" style="fill:none;fill-rule:evenodd;stroke:#000000;stroke-width:2.0px;stroke-linecap:butt;stroke-linejoin:miter;stroke-opacity:1"/>
<path class="bond-13 atom-13 atom-14" d="M 261.1,70.5 L 275.0,78.3" style="fill:none;fill-rule:evenodd;stroke:#000000;stroke-width:2.0px;stroke-linecap:butt;stroke-linejoin:miter;stroke-opacity:1"/>
<path class="bond-14 atom-14 atom-15" d="M 288.9,75.8 L 299.6,66.0" style="fill:none;fill-rule:evenodd;stroke:#000000;stroke-width:2.0px;stroke-linecap:butt;stroke-linejoin:miter;stroke-opacity:1"/>
<path class="bond-15 atom-15 atom-16" d="M 299.6,66.0 L 316.6,67.5" style="fill:none;fill-rule:evenodd;stroke:#000000;stroke-width:2.0px;stroke-linecap:butt;stroke-linejoin:miter;stroke-opacity:1"/>
<path class="bond-15 atom-15 atom-16" d="M 302.0,62.6 L 316.9,64.0" style="fill:none;fill-rule:evenodd;stroke:#000000;stroke-width:2.0px;stroke-linecap:butt;stroke-linejoin:miter;stroke-opacity:1"/>
<path class="bond-16 atom-16 atom-17" d="M 329.3,60.0 L 337.4,48.6" style="fill:none;fill-rule:evenodd;stroke:#000000;stroke-width:2.0px;stroke-linecap:butt;stroke-linejoin:miter;stroke-opacity:1"/>
<path class="bond-17 atom-17 atom-18" d="M 337.4,48.6 L 327.4,26.8" style="fill:none;fill-rule:evenodd;stroke:#000000;stroke-width:2.0px;stroke-linecap:butt;stroke-linejoin:miter;stroke-opacity:1"/>
<path class="bond-17 atom-17 atom-18" d="M 333.3,48.2 L 325.0,30.2" style="fill:none;fill-rule:evenodd;stroke:#000000;stroke-width:2.0px;stroke-linecap:butt;stroke-linejoin:miter;stroke-opacity:1"/>
<path class="bond-18 atom-18 atom-19" d="M 327.4,26.8 L 335.2,15.9" style="fill:none;fill-rule:evenodd;stroke:#000000;stroke-width:2.0px;stroke-linecap:butt;stroke-linejoin:miter;stroke-opacity:1"/>
<path class="bond-19 atom-18 atom-20" d="M 327.4,26.8 L 303.5,24.6" style="fill:none;fill-rule:evenodd;stroke:#000000;stroke-width:2.0px;stroke-linecap:butt;stroke-linejoin:miter;stroke-opacity:1"/>
<path class="bond-20 atom-20 atom-21" d="M 303.5,24.6 L 289.6,44.1" style="fill:none;fill-rule:evenodd;stroke:#000000;stroke-width:2.0px;stroke-linecap:butt;stroke-linejoin:miter;stroke-opacity:1"/>
<path class="bond-20 atom-20 atom-21" d="M 305.2,28.3 L 293.8,44.5" style="fill:none;fill-rule:evenodd;stroke:#000000;stroke-width:2.0px;stroke-linecap:butt;stroke-linejoin:miter;stroke-opacity:1"/>
<path class="bond-21 atom-10 atom-22" d="M 226.1,34.5 L 209.8,16.9" style="fill:none;fill-rule:evenodd;stroke:#000000;stroke-width:2.0px;stroke-linecap:butt;stroke-linejoin:miter;stroke-opacity:1"/>
<path class="bond-22 atom-22 atom-23" d="M 209.8,16.9 L 193.4,20.6" style="fill:none;fill-rule:evenodd;stroke:#000000;stroke-width:2.0px;stroke-linecap:butt;stroke-linejoin:miter;stroke-opacity:1"/>
<path class="bond-22 atom-22 atom-23" d="M 208.6,20.8 L 194.2,24.1" style="fill:none;fill-rule:evenodd;stroke:#000000;stroke-width:2.0px;stroke-linecap:butt;stroke-linejoin:miter;stroke-opacity:1"/>
<path class="bond-23 atom-4 atom-24" d="M 116.2,37.9 L 109.0,60.8" style="fill:none;fill-rule:evenodd;stroke:#000000;stroke-width:2.0px;stroke-linecap:butt;stroke-linejoin:miter;stroke-opacity:1"/>
<path class="bond-24 atom-24 atom-25" d="M 109.0,60.8 L 92.5,64.5" style="fill:none;fill-rule:evenodd;stroke:#000000;stroke-width:2.0px;stroke-linecap:butt;stroke-linejoin:miter;stroke-opacity:1"/>
<path class="bond-24 atom-24 atom-25" d="M 106.2,57.8 L 91.8,61.0" style="fill:none;fill-rule:evenodd;stroke:#000000;stroke-width:2.0px;stroke-linecap:butt;stroke-linejoin:miter;stroke-opacity:1"/>
<path class="bond-25 atom-25 atom-1" d="M 78.6,58.5 L 69.3,48.4" style="fill:none;fill-rule:evenodd;stroke:#000000;stroke-width:2.0px;stroke-linecap:butt;stroke-linejoin:miter;stroke-opacity:1"/>
<path class="bond-26 atom-23 atom-7" d="M 183.9,30.3 L 179.3,45.0" style="fill:none;fill-rule:evenodd;stroke:#000000;stroke-width:2.0px;stroke-linecap:butt;stroke-linejoin:miter;stroke-opacity:1"/>
<path class="bond-27 atom-21 atom-12" d="M 289.6,44.1 L 265.8,46.9" style="fill:none;fill-rule:evenodd;stroke:#000000;stroke-width:2.0px;stroke-linecap:butt;stroke-linejoin:miter;stroke-opacity:1"/>
<path class="bond-28 atom-21 atom-15" d="M 289.6,44.1 L 299.6,66.0" style="fill:none;fill-rule:evenodd;stroke:#000000;stroke-width:2.0px;stroke-linecap:butt;stroke-linejoin:miter;stroke-opacity:1"/>
<path d="M 76.1,26.6 L 76.5,25.5 L 77.7,25.2" style="fill:none;stroke:#000000;stroke-width:2.0px;stroke-linecap:butt;stroke-linejoin:miter;stroke-opacity:1;"/>
<path d="M 98.7,20.5 L 99.9,20.2 L 100.7,21.1" style="fill:none;stroke:#000000;stroke-width:2.0px;stroke-linecap:butt;stroke-linejoin:miter;stroke-opacity:1;"/>
<path d="M 138.4,32.9 L 139.6,32.6 L 140.1,33.1" style="fill:none;stroke:#000000;stroke-width:2.0px;stroke-linecap:butt;stroke-linejoin:miter;stroke-opacity:1;"/>
<path d="M 194.7,61.8 L 195.5,62.7 L 196.7,62.4" style="fill:none;stroke:#000000;stroke-width:2.0px;stroke-linecap:butt;stroke-linejoin:miter;stroke-opacity:1;"/>
<path d="M 217.8,57.7 L 218.9,57.4 L 219.3,56.3" style="fill:none;stroke:#000000;stroke-width:2.0px;stroke-linecap:butt;stroke-linejoin:miter;stroke-opacity:1;"/>
<path d="M 248.3,29.5 L 249.5,29.3 L 250.3,30.2" style="fill:none;stroke:#000000;stroke-width:2.0px;stroke-linecap:butt;stroke-linejoin:miter;stroke-opacity:1;"/>
<path d="M 261.3,69.3 L 261.1,70.5 L 261.8,70.8" style="fill:none;stroke:#000000;stroke-width:2.0px;stroke-linecap:butt;stroke-linejoin:miter;stroke-opacity:1;"/>
<path d="M 337.0,49.2 L 337.4,48.6 L 336.9,47.5" style="fill:none;stroke:#000000;stroke-width:2.0px;stroke-linecap:butt;stroke-linejoin:miter;stroke-opacity:1;"/>
<path d="M 304.7,24.7 L 303.5,24.6 L 302.8,25.6" style="fill:none;stroke:#000000;stroke-width:2.0px;stroke-linecap:butt;stroke-linejoin:miter;stroke-opacity:1;"/>
<path d="M 210.7,17.8 L 209.8,16.9 L 209.0,17.1" style="fill:none;stroke:#000000;stroke-width:2.0px;stroke-linecap:butt;stroke-linejoin:miter;stroke-opacity:1;"/>
<path d="M 109.4,59.7 L 109.0,60.8 L 108.2,61.0" style="fill:none;stroke:#000000;stroke-width:2.0px;stroke-linecap:butt;stroke-linejoin:miter;stroke-opacity:1;"/>
<path class="atom-0" d="M 29.6 48.8 L 35.5 48.8 L 35.5 49.9 L 30.9 49.9 L 30.9 52.9 L 35.0 52.9 L 35.0 54.1 L 30.9 54.1 L 30.9 58.7 L 29.6 58.7 L 29.6 48.8 " fill="#000000"/>
<path class="atom-0" d="M 39.6 60.2 Q 40.3 60.4, 40.6 60.8 Q 40.9 61.2, 40.9 61.8 Q 40.9 62.4, 40.6 62.8 Q 40.3 63.3, 39.8 63.5 Q 39.3 63.7, 38.6 63.7 Q 37.9 63.7, 37.4 63.5 Q 36.9 63.2, 36.5 62.7 L 37.0 62.2 Q 37.4 62.6, 37.8 62.8 Q 38.1 63.0, 38.6 63.0 Q 39.2 63.0, 39.6 62.7 Q 40.0 62.4, 40.0 61.8 Q 40.0 61.2, 39.6 60.9 Q 39.2 60.6, 38.4 60.6 L 37.9 60.6 L 37.9 59.9 L 38.3 59.9 Q 39.1 59.9, 39.4 59.6 Q 39.8 59.3, 39.8 58.7 Q 39.8 58.3, 39.5 58.0 Q 39.2 57.8, 38.6 57.8 Q 38.1 57.8, 37.8 58.0 Q 37.4 58.1, 37.2 58.6 L 36.5 58.3 Q 36.8 57.7, 37.3 57.4 Q 37.9 57.0, 38.6 57.0 Q 39.6 57.0, 40.2 57.5 Q 40.7 57.9, 40.7 58.7 Q 40.7 59.2, 40.5 59.6 Q 40.2 60.0, 39.6 60.2 " fill="#000000"/>
<path class="atom-0" d="M 42.1 53.7 Q 42.1 51.2, 43.2 50.0 Q 44.4 48.7, 46.6 48.7 Q 48.6 48.7, 49.7 50.1 L 48.8 50.9 Q 48.0 49.8, 46.6 49.8 Q 45.1 49.8, 44.3 50.8 Q 43.5 51.8, 43.5 53.7 Q 43.5 55.7, 44.3 56.7 Q 45.2 57.7, 46.8 57.7 Q 47.8 57.7, 49.1 57.0 L 49.5 58.1 Q 49.0 58.4, 48.2 58.6 Q 47.4 58.8, 46.6 58.8 Q 44.4 58.8, 43.2 57.5 Q 42.1 56.2, 42.1 53.7 " fill="#000000"/>
<path class="atom-6" d="M 153.7 45.3 L 156.9 50.6 Q 157.2 51.1, 157.7 52.0 Q 158.3 53.0, 158.3 53.0 L 158.3 45.3 L 159.6 45.3 L 159.6 55.3 L 158.2 55.3 L 154.8 49.5 Q 154.4 48.8, 153.9 48.1 Q 153.5 47.3, 153.4 47.1 L 153.4 55.3 L 152.1 55.3 L 152.1 45.3 L 153.7 45.3 " fill="#000000"/>
<path class="atom-6" d="M 152.0 56.2 L 153.3 56.2 L 153.3 60.5 L 158.4 60.5 L 158.4 56.2 L 159.7 56.2 L 159.7 66.2 L 158.4 66.2 L 158.4 61.6 L 153.3 61.6 L 153.3 66.2 L 152.0 66.2 L 152.0 56.2 " fill="#000000"/>
<path class="atom-14" d="M 279.8 77.3 L 283.0 82.5 Q 283.4 83.0, 283.9 84.0 Q 284.4 84.9, 284.4 85.0 L 284.4 77.3 L 285.7 77.3 L 285.7 87.2 L 284.4 87.2 L 280.9 81.4 Q 280.5 80.8, 280.0 80.0 Q 279.6 79.2, 279.5 79.0 L 279.5 87.2 L 278.2 87.2 L 278.2 77.3 L 279.8 77.3 " fill="#000000"/>
<path class="atom-14" d="M 278.1 88.2 L 279.4 88.2 L 279.4 92.4 L 284.5 92.4 L 284.5 88.2 L 285.9 88.2 L 285.9 98.1 L 284.5 98.1 L 284.5 93.5 L 279.4 93.5 L 279.4 98.1 L 278.1 98.1 L 278.1 88.2 " fill="#000000"/>
<path class="atom-16" d="M 321.3 63.2 L 324.6 68.5 Q 324.9 69.0, 325.4 69.9 Q 325.9 70.9, 326.0 70.9 L 326.0 63.2 L 327.3 63.2 L 327.3 73.2 L 325.9 73.2 L 322.4 67.4 Q 322.0 66.7, 321.6 66.0 Q 321.2 65.2, 321.0 65.0 L 321.0 73.2 L 319.8 73.2 L 319.8 63.2 L 321.3 63.2 " fill="#000000"/>
<path class="atom-19" d="M 337.5 7.6 Q 337.5 5.1, 338.6 3.8 Q 339.8 2.5, 342.0 2.5 Q 344.0 2.5, 345.1 4.0 L 344.2 4.7 Q 343.4 3.7, 342.0 3.7 Q 340.5 3.7, 339.7 4.7 Q 338.9 5.7, 338.9 7.6 Q 338.9 9.5, 339.7 10.5 Q 340.5 11.6, 342.1 11.6 Q 343.2 11.6, 344.5 10.9 L 344.9 11.9 Q 344.4 12.3, 343.6 12.5 Q 342.8 12.7, 341.9 12.7 Q 339.8 12.7, 338.6 11.4 Q 337.5 10.0, 337.5 7.6 " fill="#000000"/>
<path class="atom-19" d="M 346.1 1.9 L 347.4 1.9 L 347.4 12.5 L 346.1 12.5 L 346.1 1.9 " fill="#000000"/>
<path class="atom-23" d="M 184.2 17.2 L 187.5 22.4 Q 187.8 22.9, 188.3 23.9 Q 188.8 24.8, 188.9 24.9 L 188.9 17.2 L 190.2 17.2 L 190.2 27.1 L 188.8 27.1 L 185.3 21.3 Q 184.9 20.7, 184.5 19.9 Q 184.1 19.1, 183.9 18.9 L 183.9 27.1 L 182.7 27.1 L 182.7 17.2 L 184.2 17.2 " fill="#000000"/>
<path class="atom-25" d="M 83.4 61.1 L 86.7 66.4 Q 87.0 66.9, 87.5 67.8 Q 88.0 68.8, 88.0 68.8 L 88.0 61.1 L 89.4 61.1 L 89.4 71.0 L 88.0 71.0 L 84.5 65.3 Q 84.1 64.6, 83.7 63.8 Q 83.2 63.1, 83.1 62.8 L 83.1 71.0 L 81.8 71.0 L 81.8 61.1 L 83.4 61.1 " fill="#000000"/>
</g><g transform="translate(581, 18) scale(1 1) "><!-- END OF HEADER -->
<path class="bond-0 atom-0 atom-1" d="M 44.2,37.5 L 62.0,35.6" style="fill:none;fill-rule:evenodd;stroke:#000000;stroke-width:2.0px;stroke-linecap:butt;stroke-linejoin:miter;stroke-opacity:1"/>
<path class="bond-1 atom-1 atom-2" d="M 62.0,35.6 L 71.7,13.7" style="fill:none;fill-rule:evenodd;stroke:#000000;stroke-width:2.0px;stroke-linecap:butt;stroke-linejoin:miter;stroke-opacity:1"/>
<path class="bond-1 atom-1 atom-2" d="M 66.1,35.2 L 74.1,17.0" style="fill:none;fill-rule:evenodd;stroke:#000000;stroke-width:2.0px;stroke-linecap:butt;stroke-linejoin:miter;stroke-opacity:1"/>
<path class="bond-2 atom-2 atom-3" d="M 71.7,13.7 L 95.5,11.1" style="fill:none;fill-rule:evenodd;stroke:#000000;stroke-width:2.0px;stroke-linecap:butt;stroke-linejoin:miter;stroke-opacity:1"/>
<path class="bond-3 atom-3 atom-4" d="M 95.5,11.1 L 109.7,30.5" style="fill:none;fill-rule:evenodd;stroke:#000000;stroke-width:2.0px;stroke-linecap:butt;stroke-linejoin:miter;stroke-opacity:1"/>
<path class="bond-3 atom-3 atom-4" d="M 93.9,14.9 L 105.6,30.9" style="fill:none;fill-rule:evenodd;stroke:#000000;stroke-width:2.0px;stroke-linecap:butt;stroke-linejoin:miter;stroke-opacity:1"/>
<path class="bond-4 atom-4 atom-5" d="M 109.7,30.5 L 133.6,27.9" style="fill:none;fill-rule:evenodd;stroke:#000000;stroke-width:2.0px;stroke-linecap:butt;stroke-linejoin:miter;stroke-opacity:1"/>
<path class="bond-5 atom-5 atom-6" d="M 133.6,27.9 L 143.3,6.0" style="fill:none;fill-rule:evenodd;stroke:#000000;stroke-width:2.0px;stroke-linecap:butt;stroke-linejoin:miter;stroke-opacity:1"/>
<path class="bond-5 atom-5 atom-6" d="M 137.7,27.5 L 145.7,9.3" style="fill:none;fill-rule:evenodd;stroke:#000000;stroke-width:2.0px;stroke-linecap:butt;stroke-linejoin:miter;stroke-opacity:1"/>
<path class="bond-6 atom-6 atom-7" d="M 143.3,6.0 L 167.1,3.4" style="fill:none;fill-rule:evenodd;stroke:#000000;stroke-width:2.0px;stroke-linecap:butt;stroke-linejoin:miter;stroke-opacity:1"/>
<path class="bond-7 atom-7 atom-8" d="M 167.1,3.4 L 181.3,22.8" style="fill:none;fill-rule:evenodd;stroke:#000000;stroke-width:2.0px;stroke-linecap:butt;stroke-linejoin:miter;stroke-opacity:1"/>
<path class="bond-7 atom-7 atom-8" d="M 165.4,7.2 L 177.1,23.2" style="fill:none;fill-rule:evenodd;stroke:#000000;stroke-width:2.0px;stroke-linecap:butt;stroke-linejoin:miter;stroke-opacity:1"/>
<path class="bond-8 atom-8 atom-9" d="M 181.3,22.8 L 171.6,44.7" style="fill:none;fill-rule:evenodd;stroke:#000000;stroke-width:2.0px;stroke-linecap:butt;stroke-linejoin:miter;stroke-opacity:1"/>
<path class="bond-9 atom-9 atom-10" d="M 171.6,44.7 L 147.7,47.3" style="fill:none;fill-rule:evenodd;stroke:#000000;stroke-width:2.0px;stroke-linecap:butt;stroke-linejoin:miter;stroke-opacity:1"/>
<path class="bond-9 atom-9 atom-10" d="M 169.1,41.4 L 149.4,43.5" style="fill:none;fill-rule:evenodd;stroke:#000000;stroke-width:2.0px;stroke-linecap:butt;stroke-linejoin:miter;stroke-opacity:1"/>
<path class="bond-10 atom-9 atom-11" d="M 171.6,44.7 L 182.5,54.5" style="fill:none;fill-rule:evenodd;stroke:#000000;stroke-width:2.0px;stroke-linecap:butt;stroke-linejoin:miter;stroke-opacity:1"/>
<path class="bond-11 atom-11 atom-12" d="M 196.4,56.7 L 210.2,48.7" style="fill:none;fill-rule:evenodd;stroke:#000000;stroke-width:2.0px;stroke-linecap:butt;stroke-linejoin:miter;stroke-opacity:1"/>
<path class="bond-12 atom-12 atom-13" d="M 210.2,48.7 L 233.0,56.0" style="fill:none;fill-rule:evenodd;stroke:#000000;stroke-width:2.0px;stroke-linecap:butt;stroke-linejoin:miter;stroke-opacity:1"/>
<path class="bond-12 atom-12 atom-13" d="M 213.3,45.9 L 232.2,52.0" style="fill:none;fill-rule:evenodd;stroke:#000000;stroke-width:2.0px;stroke-linecap:butt;stroke-linejoin:miter;stroke-opacity:1"/>
<path class="bond-13 atom-13 atom-14" d="M 233.0,56.0 L 250.8,39.9" style="fill:none;fill-rule:evenodd;stroke:#000000;stroke-width:2.0px;stroke-linecap:butt;stroke-linejoin:miter;stroke-opacity:1"/>
<path class="bond-14 atom-14 atom-15" d="M 250.8,39.9 L 247.5,24.6" style="fill:none;fill-rule:evenodd;stroke:#000000;stroke-width:2.0px;stroke-linecap:butt;stroke-linejoin:miter;stroke-opacity:1"/>
<path class="bond-14 atom-14 atom-15" d="M 246.9,38.7 L 244.0,25.4" style="fill:none;fill-rule:evenodd;stroke:#000000;stroke-width:2.0px;stroke-linecap:butt;stroke-linejoin:miter;stroke-opacity:1"/>
<path class="bond-15 atom-15 atom-16" d="M 238.8,14.2 L 222.9,9.1" style="fill:none;fill-rule:evenodd;stroke:#000000;stroke-width:2.0px;stroke-linecap:butt;stroke-linejoin:miter;stroke-opacity:1"/>
<path class="bond-16 atom-16 atom-17" d="M 222.9,9.1 L 205.2,25.2" style="fill:none;fill-rule:evenodd;stroke:#000000;stroke-width:2.0px;stroke-linecap:butt;stroke-linejoin:miter;stroke-opacity:1"/>
<path class="bond-16 atom-16 atom-17" d="M 223.8,13.2 L 209.1,26.5" style="fill:none;fill-rule:evenodd;stroke:#000000;stroke-width:2.0px;stroke-linecap:butt;stroke-linejoin:miter;stroke-opacity:1"/>
<path class="bond-17 atom-4 atom-18" d="M 109.7,30.5 L 100.0,52.4" style="fill:none;fill-rule:evenodd;stroke:#000000;stroke-width:2.0px;stroke-linecap:butt;stroke-linejoin:miter;stroke-opacity:1"/>
<path class="bond-18 atom-18 atom-19" d="M 100.0,52.4 L 83.1,54.3" style="fill:none;fill-rule:evenodd;stroke:#000000;stroke-width:2.0px;stroke-linecap:butt;stroke-linejoin:miter;stroke-opacity:1"/>
<path class="bond-18 atom-18 atom-19" d="M 97.5,49.1 L 82.7,50.7" style="fill:none;fill-rule:evenodd;stroke:#000000;stroke-width:2.0px;stroke-linecap:butt;stroke-linejoin:miter;stroke-opacity:1"/>
<path class="bond-19 atom-19 atom-1" d="M 70.2,46.9 L 62.0,35.6" style="fill:none;fill-rule:evenodd;stroke:#000000;stroke-width:2.0px;stroke-linecap:butt;stroke-linejoin:miter;stroke-opacity:1"/>
<path class="bond-20 atom-10 atom-5" d="M 147.7,47.3 L 133.6,27.9" style="fill:none;fill-rule:evenodd;stroke:#000000;stroke-width:2.0px;stroke-linecap:butt;stroke-linejoin:miter;stroke-opacity:1"/>
<path class="bond-21 atom-17 atom-12" d="M 205.2,25.2 L 210.2,48.7" style="fill:none;fill-rule:evenodd;stroke:#000000;stroke-width:2.0px;stroke-linecap:butt;stroke-linejoin:miter;stroke-opacity:1"/>
<path class="bond-22 atom-17 atom-8" d="M 205.2,25.2 L 181.3,22.8" style="fill:none;fill-rule:evenodd;stroke:#000000;stroke-width:2.0px;stroke-linecap:butt;stroke-linejoin:miter;stroke-opacity:1"/>
<path d="M 71.2,14.8 L 71.7,13.7 L 72.9,13.5" style="fill:none;stroke:#000000;stroke-width:2.0px;stroke-linecap:butt;stroke-linejoin:miter;stroke-opacity:1;"/>
<path d="M 94.3,11.2 L 95.5,11.1 L 96.2,12.1" style="fill:none;stroke:#000000;stroke-width:2.0px;stroke-linecap:butt;stroke-linejoin:miter;stroke-opacity:1;"/>
<path d="M 142.8,7.1 L 143.3,6.0 L 144.5,5.8" style="fill:none;stroke:#000000;stroke-width:2.0px;stroke-linecap:butt;stroke-linejoin:miter;stroke-opacity:1;"/>
<path d="M 165.9,3.5 L 167.1,3.4 L 167.8,4.4" style="fill:none;stroke:#000000;stroke-width:2.0px;stroke-linecap:butt;stroke-linejoin:miter;stroke-opacity:1;"/>
<path d="M 148.9,47.2 L 147.7,47.3 L 147.0,46.3" style="fill:none;stroke:#000000;stroke-width:2.0px;stroke-linecap:butt;stroke-linejoin:miter;stroke-opacity:1;"/>
<path d="M 231.9,55.7 L 233.0,56.0 L 233.9,55.2" style="fill:none;stroke:#000000;stroke-width:2.0px;stroke-linecap:butt;stroke-linejoin:miter;stroke-opacity:1;"/>
<path d="M 250.0,40.8 L 250.8,39.9 L 250.7,39.2" style="fill:none;stroke:#000000;stroke-width:2.0px;stroke-linecap:butt;stroke-linejoin:miter;stroke-opacity:1;"/>
<path d="M 223.7,9.4 L 222.9,9.1 L 222.1,9.9" style="fill:none;stroke:#000000;stroke-width:2.0px;stroke-linecap:butt;stroke-linejoin:miter;stroke-opacity:1;"/>
<path d="M 100.5,51.3 L 100.0,52.4 L 99.1,52.5" style="fill:none;stroke:#000000;stroke-width:2.0px;stroke-linecap:butt;stroke-linejoin:miter;stroke-opacity:1;"/>
<path class="atom-0" d="M 35.2 33.2 L 41.1 33.2 L 41.1 34.4 L 36.5 34.4 L 36.5 37.4 L 40.5 37.4 L 40.5 38.5 L 36.5 38.5 L 36.5 43.1 L 35.2 43.1 L 35.2 33.2 " fill="#000000"/>
<path class="atom-11" d="M 187.3 55.8 L 190.5 61.0 Q 190.8 61.6, 191.3 62.5 Q 191.9 63.4, 191.9 63.5 L 191.9 55.8 L 193.2 55.8 L 193.2 65.7 L 191.8 65.7 L 188.4 60.0 Q 188.0 59.3, 187.5 58.5 Q 187.1 57.7, 187.0 57.5 L 187.0 65.7 L 185.7 65.7 L 185.7 55.8 L 187.3 55.8 " fill="#000000"/>
<path class="atom-11" d="M 185.6 66.7 L 186.9 66.7 L 186.9 70.9 L 192.0 70.9 L 192.0 66.7 L 193.3 66.7 L 193.3 76.6 L 192.0 76.6 L 192.0 72.0 L 186.9 72.0 L 186.9 76.6 L 185.6 76.6 L 185.6 66.7 " fill="#000000"/>
<path class="atom-15" d="M 243.6 11.5 L 246.8 16.8 Q 247.2 17.3, 247.7 18.2 Q 248.2 19.2, 248.2 19.2 L 248.2 11.5 L 249.6 11.5 L 249.6 21.4 L 248.2 21.4 L 244.7 15.7 Q 244.3 15.0, 243.9 14.3 Q 243.4 13.5, 243.3 13.2 L 243.3 21.4 L 242.0 21.4 L 242.0 11.5 L 243.6 11.5 " fill="#000000"/>
<path class="atom-19" d="M 73.9 50.0 L 77.2 55.3 Q 77.5 55.8, 78.0 56.8 Q 78.5 57.7, 78.6 57.7 L 78.6 50.0 L 79.9 50.0 L 79.9 60.0 L 78.5 60.0 L 75.0 54.2 Q 74.6 53.5, 74.2 52.8 Q 73.8 52.0, 73.7 51.8 L 73.7 60.0 L 72.4 60.0 L 72.4 50.0 L 73.9 50.0 " fill="#000000"/>
</g></g></svg>
